<svg xmlns="http://www.w3.org/2000/svg" width="795" height="256" fill="none" viewBox="0 0 795 256"><circle cx="127.5" cy="128.5" r="95.5" fill="#000" fill-opacity=".1"/><g clip-path="url(#a)" filter="url(#b)"><path fill="#fff" d="M128 8a3.44 3.44 0 0 1 2.943 1.665l6.856 11.429-.776-1.295q1.624.135 3.235.317l-1.013 1.121 8.956-9.87a3.43 3.43 0 0 1 5.767 1.147l4.496 12.544-.51-1.424c1.045.3 2.085.62 3.116.951l-.935.693 10.432-7.73a3.43 3.43 0 0 1 2.066-.673c.443.002.881.09 1.29.259a3.43 3.43 0 0 1 2.076 2.665l1.747 11.724q1.426.737 2.827 1.515l10.725-5.065a3.43 3.43 0 0 1 2.746-.078 3.44 3.44 0 0 1 1.923 1.96c.168.442.243.914.22 1.385l-.649 13.313.073-1.433q1.235.987 2.442 2.009l-1.297.326 12.841-3.209a3.432 3.432 0 0 1 3.561 1.257 3.44 3.44 0 0 1 .594 2.898l-3.181 12.727.298-1.182a110 110 0 0 1 2.009 2.442l-1.433.072 13.313-.648a3.43 3.43 0 0 1 3.017 1.52 3.44 3.44 0 0 1 .251 3.368l-5.067 10.724a109 109 0 0 1 1.515 2.827L236.198 80a3.43 3.43 0 0 1 2.664 2.078 3.426 3.426 0 0 1-.413 3.353l-7.932 10.707.896-1.21c.331 1.032.651 2.071.951 3.116l-1.424-.51 12.545 4.496a3.433 3.433 0 0 1 2.099 4.303 3.4 3.4 0 0 1-.952 1.465l-9.792 8.884 1.042-.942q.182 1.612.316 3.237l10.135 6.08a3.426 3.426 0 0 1 0 5.884l-10.135 6.08-.146 1.622q-.079.808-.17 1.615l-1.121-1.013 9.871 8.955a3.43 3.43 0 0 1 .293 4.779 3.44 3.44 0 0 1-1.44.988l-12.414 4.449 1.293-.462c-.3 1.045-.62 2.085-.951 3.116l7.036 9.495a3.43 3.43 0 0 1-.644 4.745 3.44 3.44 0 0 1-1.607.688l-11.723 1.748q-.738 1.426-1.516 2.827l5.067 10.725a3.434 3.434 0 0 1-1.56 4.526 3.44 3.44 0 0 1-1.708.362l-13.313-.648 1.433.072q-.987 1.237-2.009 2.443l-.348-1.389 3.231 12.933a3.43 3.43 0 0 1-2.409 4.132 3.4 3.4 0 0 1-1.746.023l-12.933-3.231 1.389.347q-1.207 1.022-2.442 2.01l-.073-1.433.649 13.312a3.432 3.432 0 0 1-4.889 3.268l-10.725-5.066q-1.4.778-2.827 1.515l-1.747 11.724a3.44 3.44 0 0 1-.688 1.607 3.43 3.43 0 0 1-4.744.644l-9.497-7.036c-1.031.331-2.071.651-3.116.951l.51-1.424-4.496 12.544a3.426 3.426 0 0 1-2.56 2.206 3.42 3.42 0 0 1-3.207-1.058l-8.956-9.871 1.013 1.121q-1.61.182-3.235.316l-6.08 10.135a3.432 3.432 0 0 1-5.885 0l-6.08-10.135a108 108 0 0 1-3.237-.316l1.013-1.121-8.955 9.871a3.427 3.427 0 0 1-4.778.293 3.43 3.43 0 0 1-.99-1.441l-4.495-12.544.51 1.424c-1.046-.3-2.085-.62-3.116-.951l1.209-.896-10.705 7.932A3.43 3.43 0 0 1 80 236.198l-1.748-11.724q-1.426-.737-2.827-1.515l-10.724 5.066a3.428 3.428 0 0 1-4.888-3.268l.647-13.312-.072 1.433a110 110 0 0 1-2.442-2.01l1.388-.347-12.931 3.231a3.43 3.43 0 0 1-4.157-4.155l3.233-12.933-.349 1.388q-1.021-1.206-2.009-2.442l1.433-.072-13.313.648a3.44 3.44 0 0 1-3.017-1.519 3.43 3.43 0 0 1-.25-3.369l5.065-10.725a108 108 0 0 1-1.515-2.827L19.8 175.998a3.43 3.43 0 0 1-2.898-3.81 3.43 3.43 0 0 1 .648-1.623l7.036-9.496c-.33-1.031-.65-2.07-.951-3.115l1.292.462-12.412-4.449a3.43 3.43 0 0 1-2.207-2.559 3.43 3.43 0 0 1 1.06-3.208l9.87-8.955-1.12 1.013a108 108 0 0 1-.318-3.237l1.295.777-11.429-6.857A3.43 3.43 0 0 1 8 127.999a3.43 3.43 0 0 1 1.667-2.942l10.134-6.08q.135-1.625.317-3.237l1.042.942-9.792-8.884a3.43 3.43 0 0 1-1.06-3.208 3.43 3.43 0 0 1 2.208-2.56l12.544-4.496-1.424.51c.3-1.045.62-2.084.951-3.115l.53.715-7.566-10.212A3.428 3.428 0 0 1 19.801 80l11.724-1.749q.737-1.426 1.515-2.827L27.975 64.7a3.43 3.43 0 0 1 1.56-4.526 3.4 3.4 0 0 1 1.707-.361l13.313.647-1.433-.072q.987-1.236 2.009-2.443l.297 1.183-3.18-12.727a3.43 3.43 0 0 1 4.156-4.155l12.84 3.21-1.297-.327q1.206-1.021 2.442-2.009l.062 1.215-.637-13.095a3.43 3.43 0 0 1 2.141-3.345 3.43 3.43 0 0 1 2.747.078l10.724 5.065q1.401-.778 2.827-1.515L80.001 19.8a3.43 3.43 0 0 1 2.076-2.665 3.4 3.4 0 0 1 1.29-.259 3.43 3.43 0 0 1 2.067.674l10.705 7.932-1.21-.896q1.548-.498 3.116-.951l-.278.777 4.264-11.897a3.43 3.43 0 0 1 2.997-2.264 3.43 3.43 0 0 1 2.771 1.116l8.955 9.871-1.013-1.12q1.612-.184 3.237-.318l-.777 1.295 6.857-11.429A3.42 3.42 0 0 1 128 8M78.715 219.328l1.772 1.286-1.772-1.288zm11.84-1.016q.01-.013.016-.027l.013-.027zM35.2 119.49l5.516-2.808a89.5 89.5 0 0 0-.715 11.317c0 23.454 9.102 44.719 23.978 60.468l-6.424 1.018 22.351-3.541q.445-.068.894-.079a6.86 6.86 0 0 1 4.564 1.582 6.86 6.86 0 0 1 2.387 4.199l2.522 15.923c11.424 5.408 24.213 8.43 37.727 8.43 13.515 0 26.302-3.023 37.727-8.43l2.522-15.923a6.858 6.858 0 0 1 6.95-5.781q.45.011.894.079l22.352 3.541-6.424-1.018a88 88 0 0 0 10.662-13.805 30.5 30.5 0 0 0-3.997-.375c-9.555-.255-19.02-3.867-25.615-12.68l-.012.479c-4.249 5.644-8.798 5.522-10.618 5.474s-7.659-3.083-9.857-6.021-2.056-8.212-2.056-8.212l-9.011-3.598-11.196-7.017-1.806-.528c-3.691 1.82-8.203.26-12.208-3.205-.507 1.905-2.91 6.639-5.704 8.963-2.794 2.325-8.343 5.534-12.438 5.425s-13.067-5.147-15.618-11.932c-2.545-6.772.36-13.876.372-13.905l-4.524-1.081-1.756-2.445c-.033.027-5.605 4.642-11.451 2.573-5.864-2.076-10.728-7.484-11.965-12.315a18 18 0 0 1-.196-3.856zm28.22 88.728 7.12 5.169-8.611-6.255zm10.661-13.108a6.9 6.9 0 0 0-3.013.787 6.86 6.86 0 0 0-2.352 2.04 6.855 6.855 0 1 0 11.093 8.061 6.87 6.87 0 0 0 1.225-5.103 6.86 6.86 0 0 0-6.953-5.785m107.838 0a6.859 6.859 0 1 0 1.423 13.524 6.86 6.86 0 0 0 5.169-5.597 6.85 6.85 0 0 0-1.227-5.1 6.86 6.86 0 0 0-5.365-2.827m28.33-35.673c-6.58-14.828-25.901-27.126-37.446-21.828.442.492.897.505 1.339.996 2.678 1.991 4.019 2.987 4.358 7.314.365 3.368-.673 8.138-3.063 12.393 10.138 7.666 23.857 4.692 32.216 7.234a87 87 0 0 0 2.596-6.109m-46.732 1.915.442.491c2.237 1.014 4.525.132 4.55.122l-1.666-5.802-.455-.013zm6.12-7.514-.468.468 1.198 6.269s1.404-1.402 2.821-3.283c1.406-1.868 1.914-3.76 1.922-3.787zm-4.473-2.998c-2.385 4.698-2.043 8.051-2.038 8.101l2.416-5.212.026-.959c.454.012.026-.959-.404-1.93m5.031-.825-.013.479 5.005.134c.999-3.332-1.212-5.79-1.212-5.79zm1.518-5.717c-1.81-.048-5.086 4.137-5.12 4.181l.871 1.462.469-.466 3.767-4.698zm-25.089 1.728 4.512 1.56c1.006-3.787 4.72-7.974 4.768-8.028l-2.705-1.033zm-50.504-1.35c3.099 2.952 8.121 1.665 8.152 1.657l-2.537-7.265-.911-.024zm9.305-7.428-.467.467 2.07 7.732c4.627-3.226 5.684-8.457 5.69-8.484zm27.424-84.4a6.86 6.86 0 0 1-9.697 0L111.785 41.48c-26.42 4.891-48.643 21.524-61.078 44.315l3.898 7.65c.803-2.242 1.654-3.607 3.934-6.391 2.172.947 3.84 1.69 5.1 2.196a6.5 6.5 0 0 1-.675 1.281q2.029.774 5.42 1.584l.975-2.373s.91.025 1.352.517c.064-2.398 1.43-2.362 1.43-2.362 0-.014.02-.479.467-.467 2.262.54 8.542 4.066 11.234 5.578 2.644 1.484 2.678 1.974 2.679 1.991.022 0 6.373.17 8.203-.26 1.82.048 5.043-1.305 9.631-2.622s5.512-1.771 6.422-1.747c.911.025 9.087.723 16.34 1.876 7.255 1.154 14.003 4.213 15.342 5.208l2.262.54.493-1.426-3.601-1.536c.008-.035.519-2.388.532-2.864.013-.48.48-.947.935-.935.455.013 4.525 1.08 5.877 1.596s5.813 3.995 6.268 4.007c.449.012.441.48.441.491-.025.953-.973 2.827-.986 2.853.016.006 1.354.519 1.794 1.007.442.492 1.782 1.488 3.108 2.962 1.326.986.855 2.394.846 2.421l3.095 3.442-.038 1.438 7.517 8.358-.013.48-3.704 2.3c.055-.004 5.038-.335 8.607 1.669 3.588 2.015 4.018 2.986 3.992 3.945-.916.452-2.281.891-2.301.898-2.755.886-9.709 5.499-9.709 5.499l-.012.479 3.615 1.056c4.197-3.726 11.515-4.97 16.949-3.865 13.621 2.769 21.552 7.997 24.749 11.376.353.374.753.847 1.183 1.405a89 89 0 0 0 1.641-17.052 89 89 0 0 0-.715-11.317l5.515 2.808-19.827-10.102a6.86 6.86 0 0 1-3.726-6.648 6.9 6.9 0 0 1 .726-2.576l7.32-14.368c-12.434-22.791-34.657-39.424-61.078-44.315zm4.791 88.62 5.864 2.076 6.094-6.555-3.147-1.523-.883-.984zm-41.174-9.738c-3.351 6.148-1.191 10.525-1.191 10.525l4.261-6.124.026-.959zm-25.812-22.28c.442.492 2.614 4.389 3.043 5.36l-1.403 1.401c-.004.009-.48.95-.493 1.427-.013.474-.472.937-.48.946l-1.846.91-.455-.012-6.229-5.444-.102 3.835.454.013c.43.971 1.289 2.913 3.538 3.932 1.794 1.008 4.068 1.069 4.991.614.897.503 1.353.516 1.795 1.007 1.774.996 2.251.551 2.262.54l2.756-.885.455.012.467-.467.962-1.894c.059.008 4.549.601 6.357.65 1.897-2.829 7.927-6.986 12.035-7.356 4.095.11 10.894 1.251 16.2 7.15 4.837 5.871 3.289 13.479 3.28 13.523l9.921 3.624-4.46-3.479c-3.383-9.686-11.798-18.547-11.798-18.547s-2.262-.54-3.627-.577a6.4 6.4 0 0 1-2.237-1.499c-.007-.007-.449-.503-1.313-1.954l-.859-1.942s-.884-.983-2.223-1.979c-1.34-.995-6.332-1.608-9.05-2.161-2.69-.547-2.73-.082-2.73-.073 7.682 2.124 9.945 2.665 10.388 3.156 0 0 .43.971.872 1.463-6.33-1.608-12.27-.808-13.65-.365.872 1.463.82 3.381-.128 4.795-.93.928-3.666 2.281-3.703 2.3l-.91-.025-2.262-.54c-1.872-.447-1.493-3.462-1.307-4.489a5.6 5.6 0 0 0 .018 1.576c.39 2.409.847 2.422 2.212 2.458-2.25-1.02-1.693-4.843.191-7.191 1.408-1.871 2.728-.424 2.743-.408-.014-.021-1.32-1.948-2.704-1.031-1.031.684-2.091 2.424-2.41 4.26l-2.736.88c-.857-1.938-4.792-7.297-4.813-7.325zm76.771 23.643.885.983 9.92 3.624c2.318-1.851 5.503-2.249 5.524-2.252-1.794-1.007-9.439-4.57-11.688-5.59 0 0-.324-.123-.653-.305zm-41.871-.64.442.492 7.267.674c.14-5.243-3.843-7.751-3.89-7.78zm1.57-7.635c-4.969-.61-8.727 4.042-8.76 4.084l3.563 2.975.923-.455zm43.722 4.316c.131.153.35.298.567.419l.21-.186c-.209-.005-.511-.117-.777-.233m12.876-9.52c-.008.017-.963 1.896-1.429 2.362-.468.467-3.666.861-5.499 1.292-1.845.91-5.068 2.263-6.004 3.198-.467.467-.506 1.905-.519 2.385.003.001.264.147.575.283-.076-.089-.123-.181-.12-.271l.039-1.438c.041-.032 6.074-4.636 15.142-4.394l1.442-2.84zm-49.556-2.763c2.668 1.983 6.602 7.331 6.633 7.374l1.353.515 2.742-.406c-4.826-6.846-10.728-7.483-10.728-7.483m38.688.553c-17.127-4.282-31.697-2.779-31.798-2.768 2.64 3.429 5.241 8.297 5.241 8.297 4.678-4.673 14.285-6.336 26.557-5.529m-84.994-5.63-.103 3.835.923-.455.102-3.835zm-1 3.332.455.012.09-3.356zm78.098-8.948 2.589 5.347 9.011 3.599c-3.412-8.223-9.264-9.835-9.299-9.844zm-78.995 8.445.455.011.089-3.356zm-.897-.504.455.012.09-3.356zm-.43-.972.455.013.077-2.877-.442-.492zm-.8-21.132c-2.347 2.81-3.36 6.608-3.365 6.627-.001.013-.635 6.701-.66 7.659-.476.938.845 1.453.87 1.463l-.595 5.262 2.73.073.544-3.345-.05 1.918.455.013.077-2.877-.455-.012.05-1.918 4.032 2.507.429.971.884.983.91.025.468-.468.013-.48c-2.702-.072-2.692-1.482-2.691-1.51 0 0 .544-3.344 1.025-4.291s2.288-.419 2.288-.419l-.442-.491-.91-.025c-.898-.504-3.577-2.495-4.474-2.999l.013-.478.468-.468.051-1.918.455.012c.013-.48.468-.468.48-.947.909.024 7.736-1.224 7.774-1.231l-.268-.069c1.073-.1 3.011-.337 3.011-.337l-8.58-2.63-.494 1.427.013-.479q-2.711-.792-4.057-1.548m-.097 20.629.456.012.076-2.877zm60.507-15.176c-.909-.024-1.378.444-1.378.444-.046.03-2.8 1.855-5.094 3.221-2.313 1.378-2.782 1.846-3.262 2.792-.464.466.833 2.401.847 2.421l3.51 4.893c.455.012 1.791 1.004 1.795 1.008 0 0 7.293-.286 11.856-.644l11.83.316c.454.012.051-1.917-.795-4.338-.856-1.936-2.088-6.743-2.096-6.774-.429-.971-1.339-.996-6.773-2.1-4.992-.614-9.53-1.214-10.44-1.239m-65.808 7.949a6.9 6.9 0 0 1-1.308 2.335 6.9 6.9 0 0 1-1.934 1.564l-.025.22 3.185.085.012-.48-.454-.012.013-.479-.455-.012.48-.947.519-2.385zm45.974 1.596s5.006.134 11.792 1.755c-4.46-3.478-11.689-5.59-11.689-5.59zm125.234.989-2.875-8.848-.657-2.028h-.002zM41.407 92.897a6.859 6.859 0 0 0-2.477 13.371 6.856 6.856 0 0 0 4.237-13.041 6.9 6.9 0 0 0-1.76-.33m173.186 0a6.9 6.9 0 0 0-1.76.33 6.856 6.856 0 0 0 4.237 13.041 6.86 6.86 0 0 0 4.401-8.64 6.86 6.86 0 0 0-6.878-4.731m-114.135 8.713c.435.484.43.955.43.971l.455.013c.013-.48.468-.468.455.011.014.008.893.516.403 1.931.442.492-.48.946-.935.934l1.352.516c.015.001.91.017.936-.934l.052-1.918-1.34-.996zm-.843.004c.076.285.078.727-.104 1.41-.051 1.918-1.417 1.881-1.417 1.881s.455.013 1.353.517c.909.024 1.39-.923 1.415-1.882.034-1.245-.975-1.8-1.247-1.926m-2.354.39-.545 3.345.455.011.923-.455c-.43-.971-.416-1.45-.39-2.409.005-.209.186-.505.426-.771zm-38.354-13.02c-2.027 2.428-3.056 5.598-3.302 6.424l2.423 4.756c.302.594.515 1.228.634 1.882l.47-4.419-2.237-1.5c1.007-3.792 3.355-7.074 3.378-7.105zm40.2 12.111c-.257-.007-.666.286-.977.63l.509-.163.91.024.066.028c-.134-.506-.503-.519-.508-.519m8.459-9.85c-.456-.013-12.4 3.986-12.4 3.986.006.005 3.133 2.003 3.588 2.016s6.761 2.58 9.465 3.611c2.249 1.02 3.641.098 4.096.11.457.01 8.278-4.553 8.317-4.576-6.748-3.06-13.066-5.148-13.066-5.148m120.347 6.648-.069.047.094-.062zM71.647 89.325c-.01.027-.494 1.445-.545 3.344 7.194 1.144 8.559 2.604 8.58 2.628.014-.002 2.746-.406 4.108-.37-2.222-1.976-12.128-5.596-12.143-5.602M36.05 79.151l.05-.068zm4.076-2.723-.088.022q.112-.026.226-.05-.069.013-.138.028m.661-.114.069-.01h.005q-.037.003-.074.01M128 29.714a6.855 6.855 0 0 0-6.857 6.857A6.857 6.857 0 1 0 128 29.714m-22.79 3.234.011.067-.018-.125zm45.568.067.011-.067.007-.058zm-.855-4.463q.232.396.41.824a7 7 0 0 1-.342-.711q-.033-.056-.068-.113m-43.914.113a7 7 0 0 0-.342.711q.178-.428.41-.824-.035.056-.068.113m.496-.767-.059.083.1-.133zm2.021-1.81-.065.04.121-.07zm39.011.04-.062-.04-.058-.03q.06.034.12.07m-1.259-.594-.044-.016-.005-.001z"/></g><g filter="url(#c)"><path fill="#fff" d="m286.197 117 4.106-49.454h20.429q5.553 0 9.441 2.004 3.888 1.98 5.772 5.699 1.883 3.695 1.448 8.765-.41 5.144-2.946 8.742-2.535 3.573-6.833 5.457-4.299 1.86-9.949 1.859h-12.919l.797-9.417h10.697q2.68 0 4.564-.7 1.908-.725 2.97-2.174 1.062-1.472 1.232-3.767.192-2.295-.628-3.791-.822-1.52-2.584-2.27-1.762-.773-4.443-.773h-5.892L298.151 117zm29.726-22.602L326.355 117h-13.04l-10.19-22.602zM332.847 117l4.105-49.454h11.953l-3.284 39.747h20.574l-.822 9.707zm40.074 0 4.105-49.454h20.623q5.553 0 9.176 1.57 3.622 1.569 5.288 4.394t1.352 6.544q-.241 2.825-1.618 5.047a11.5 11.5 0 0 1-3.573 3.646q-2.197 1.449-4.951 2.029l-.048.483q2.994.12 5.409 1.617 2.44 1.473 3.767 4.105 1.329 2.61 1.039 6.182-.339 3.985-2.633 7.124-2.27 3.115-6.278 4.926-3.985 1.787-9.466 1.787zm12.774-9.635h7.39q3.863 0 5.843-1.473 1.981-1.473 2.174-4.105.144-1.908-.628-3.284-.772-1.4-2.367-2.15-1.57-.772-3.863-.772h-7.607zm1.594-19.487h6.641q1.932 0 3.501-.652 1.594-.653 2.56-1.884t1.111-2.97q.193-2.487-1.473-3.912-1.642-1.425-4.612-1.424h-6.834zm49.438 29.822q-5.843 0-9.852-2.39-3.984-2.415-5.892-6.738-1.884-4.322-1.425-10.045.483-5.7 3.067-9.997 2.608-4.323 7.003-6.713t10.214-2.39q5.844 0 9.829 2.414 4.008 2.39 5.916 6.713 1.907 4.323 1.424 10.045-.458 5.7-3.066 9.998t-7.003 6.713q-4.371 2.39-10.215 2.39m.725-8.91q2.124 0 3.719-1.304 1.617-1.305 2.583-3.622.99-2.343 1.256-5.41.241-3.065-.338-5.36-.579-2.319-1.956-3.622-1.377-1.304-3.501-1.304-2.174 0-3.816 1.328-1.617 1.304-2.608 3.622-.966 2.317-1.207 5.409-.266 3.066.314 5.385.603 2.294 1.98 3.598 1.4 1.28 3.574 1.28m49.474-28.88-.748 8.692h-23.4l.749-8.693zm-17.773-8.887h11.809l-2.85 34.314q-.096 1.087.193 1.762.315.653.966.942.652.266 1.594.266.653 0 1.425-.145.797-.145 1.207-.217l1.063 8.524q-.87.266-2.439.603-1.546.363-3.671.459-4.201.17-7.075-.99-2.85-1.183-4.202-3.67-1.327-2.487-.966-6.23zM286.197 188l4.106-49.455h20.429q5.553 0 9.441 2.005 3.888 1.98 5.772 5.699 1.883 3.695 1.448 8.765-.41 5.144-2.946 8.742-2.535 3.573-6.833 5.457-4.299 1.86-9.949 1.859h-12.919l.797-9.417h10.697q2.68 0 4.564-.7 1.908-.725 2.97-2.174 1.062-1.472 1.232-3.767.192-2.294-.628-3.791-.822-1.521-2.584-2.27-1.762-.773-4.443-.773h-5.892L298.151 188zm29.726-22.602L326.355 188h-13.04l-10.19-22.602zm42.182 6.592 1.763-21.081h11.784L368.561 188h-11.253l.58-6.906h-.387q-1.473 3.405-4.636 5.409-3.14 1.98-7.317 1.98-3.791 0-6.52-1.739t-4.056-4.853q-1.329-3.14-1.015-7.341l1.98-23.641h11.809l-1.787 21.323q-.218 3.018 1.207 4.757t4.154 1.738a6.8 6.8 0 0 0 3.211-.772 6.4 6.4 0 0 0 2.439-2.294q.966-1.522 1.135-3.671m53.815-9.756-10.746.29q-.073-1.183-.724-2.077-.652-.893-1.763-1.4-1.087-.531-2.584-.531-2.149 0-3.767.917-1.617.918-1.739 2.439-.072.966.701 1.69.772.725 3.067 1.208l7.051 1.352q5.457 1.063 8.017 3.598 2.583 2.536 2.245 6.713-.338 3.744-2.752 6.496-2.391 2.753-6.327 4.274-3.936 1.497-8.838 1.497-8.041 0-12.412-3.284-4.37-3.284-4.564-8.765l11.591-.29q.217 2.028 1.69 3.091 1.473 1.038 3.864 1.062t3.984-.942q1.618-.965 1.763-2.463.048-1.134-.918-1.811-.966-.675-3.235-1.135l-6.375-1.207q-5.482-1.038-8.066-3.84-2.56-2.825-2.173-7.196.29-3.645 2.463-6.206 2.173-2.583 5.916-3.936t8.669-1.352q7.656 0 11.809 3.163 4.177 3.14 4.153 8.645m30.017-11.325-.748 8.693H417.79l.748-8.693zm-17.772-8.886h11.808l-2.85 34.314q-.097 1.087.194 1.762.314.653.965.942.652.266 1.594.266.653 0 1.425-.145.797-.145 1.207-.217l1.063 8.524q-.87.265-2.439.603-1.545.363-3.671.459-4.201.17-7.075-.99-2.85-1.183-4.202-3.67-1.327-2.487-.966-6.23zm54.094-3.478L474.154 188h-11.953l4.105-49.455zm18.354 28.302L494.874 188h-11.808l3.091-37.091h11.229l-.58 6.81h.41q1.498-3.405 4.637-5.337 3.139-1.956 7.268-1.956 3.888 0 6.641 1.739 2.752 1.739 4.081 4.878 1.351 3.138.966 7.316L518.829 188h-11.784l1.762-21.322q.266-3.067-1.159-4.806-1.425-1.763-4.25-1.763-1.835 0-3.308.821-1.473.798-2.391 2.294-.893 1.498-1.086 3.623m54.889-15.938-.748 8.693h-23.399l.748-8.693zm-17.772-8.886h11.808l-2.85 34.314q-.096 1.087.194 1.762.314.653.965.942.652.266 1.594.266.652 0 1.425-.145.797-.145 1.207-.217l1.063 8.524q-.87.265-2.439.603-1.545.363-3.671.459-4.201.17-7.075-.99-2.85-1.183-4.202-3.67-1.327-2.487-.966-6.23zm38.958 46.677q-5.82 0-9.853-2.294-4.008-2.318-5.916-6.592-1.908-4.298-1.401-10.215.483-5.746 3.116-10.045 2.631-4.323 6.954-6.713 4.323-2.415 9.925-2.415 3.96 0 7.123 1.232 3.188 1.231 5.385 3.67 2.198 2.415 3.212 5.94 1.038 3.526.652 8.09l-.241 2.946H559.43l.532-6.858h21.25q.144-1.884-.604-3.357a5.3 5.3 0 0 0-2.149-2.294q-1.425-.845-3.381-.845t-3.598.894a7.57 7.57 0 0 0-2.68 2.415q-1.038 1.497-1.256 3.404l-.628 7.027q-.193 2.295.531 3.985a5.55 5.55 0 0 0 2.319 2.608q1.57.893 3.863.893 1.546 0 2.85-.435a6.8 6.8 0 0 0 2.318-1.279 6.1 6.1 0 0 0 1.57-2.077l10.794.314q-.99 3.647-3.502 6.351-2.487 2.68-6.302 4.177-3.792 1.473-8.669 1.473m25.042-.7 3.091-37.091h11.47l-.579 6.761h.386q1.328-3.67 3.767-5.457 2.464-1.81 5.506-1.811.821 0 1.666.121.87.096 1.594.289l-.869 10.287q-.822-.314-2.174-.458a19 19 0 0 0-2.414-.169q-2.101 0-3.84.941a7.7 7.7 0 0 0-2.849 2.584q-1.087 1.643-1.28 3.864L609.539 188zm55.904-37.091-.748 8.693h-23.858l.748-8.693zM631.636 188l3.259-38.974q.362-4.298 2.198-7.124 1.835-2.85 4.829-4.25 2.995-1.425 6.762-1.425 2.463 0 4.612.387 2.173.361 3.188.652l-2.584 8.645q-.652-.217-1.546-.363a11 11 0 0 0-1.738-.145q-2.053 0-2.898.918t-1.014 2.511L643.444 188zm34.937.628q-3.525 0-6.182-1.183-2.656-1.208-4.033-3.623-1.375-2.439-1.062-6.109.265-3.091 1.521-5.192a10.5 10.5 0 0 1 3.26-3.453q2.028-1.352 4.564-2.028a30 30 0 0 1 5.385-.942q3.188-.29 5.144-.604 1.98-.338 2.897-.966.942-.627 1.039-1.738v-.121q.144-1.86-1.039-2.874t-3.356-1.014q-2.319 0-3.864 1.014-1.521 1.015-2.052 2.802l-10.843-.387a13.86 13.86 0 0 1 2.994-6.037q2.247-2.68 5.917-4.201 3.67-1.546 8.645-1.546 3.549 0 6.471.845 2.922.822 4.999 2.415 2.1 1.569 3.139 3.864t.797 5.24L688.789 188h-11.108l.435-5.168h-.29a12.2 12.2 0 0 1-2.801 3.188q-1.643 1.304-3.767 1.956-2.102.652-4.685.652m4.298-7.727q1.884 0 3.477-.773 1.618-.773 2.633-2.125 1.038-1.377 1.207-3.188l.266-3.525a7 7 0 0 1-1.256.483q-.724.217-1.594.41-.845.17-1.763.338-.893.145-1.714.266-1.69.266-2.922.821-1.207.555-1.908 1.449-.676.869-.772 2.077-.145 1.835 1.062 2.801 1.232.966 3.284.966m43.764 7.799q-5.868 0-9.877-2.414-3.984-2.415-5.868-6.714-1.883-4.322-1.4-9.997.459-5.698 3.067-9.997 2.607-4.323 7.002-6.737 4.419-2.415 10.239-2.415 5.143 0 8.814 1.86 3.67 1.859 5.53 5.264 1.883 3.381 1.618 7.944h-11.036q-.096-2.825-1.545-4.443-1.449-1.642-3.936-1.642-2.078 0-3.743 1.159-1.642 1.136-2.681 3.381-1.038 2.221-1.304 5.506-.265 3.283.387 5.554.676 2.246 2.125 3.404 1.449 1.135 3.501 1.135 1.642 0 2.97-.7t2.27-2.053q.942-1.376 1.328-3.332h11.036q-.556 4.588-2.97 8.017-2.391 3.429-6.351 5.337-3.96 1.883-9.176 1.883m41.958 0q-5.82 0-9.852-2.294-4.01-2.318-5.916-6.592-1.908-4.298-1.401-10.215.483-5.746 3.115-10.045 2.632-4.323 6.955-6.713 4.321-2.415 9.924-2.415 3.96 0 7.124 1.232 3.188 1.231 5.385 3.67 2.197 2.415 3.211 5.94 1.04 3.526.652 8.09l-.241 2.946h-32.213l.531-6.858h21.25q.145-1.884-.604-3.357a5.3 5.3 0 0 0-2.149-2.294q-1.424-.845-3.38-.845-1.957 0-3.598.894a7.6 7.6 0 0 0-2.681 2.415q-1.038 1.497-1.255 3.404l-.628 7.027q-.194 2.295.531 3.985a5.55 5.55 0 0 0 2.318 2.608q1.57.893 3.864.893 1.545 0 2.849-.435a6.8 6.8 0 0 0 2.318-1.279 6.1 6.1 0 0 0 1.57-2.077l10.794.314q-.99 3.647-3.501 6.351-2.488 2.68-6.303 4.177-3.79 1.473-8.669 1.473"/></g><defs><filter id="b" width="252" height="252" x="2" y="2" color-interpolation-filters="sRGB" filterUnits="userSpaceOnUse"><feFlood flood-opacity="0" result="BackgroundImageFix"/><feColorMatrix in="SourceAlpha" result="hardAlpha" values="0 0 0 0 0 0 0 0 0 0 0 0 0 0 0 0 0 0 127 0"/><feOffset/><feGaussianBlur stdDeviation="3"/><feComposite in2="hardAlpha" operator="out"/><feColorMatrix values="0 0 0 0 0 0 0 0 0 0 0 0 0 0 0 0 0 0 0.25 0"/><feBlend in2="BackgroundImageFix" result="effect1_dropShadow_1_447"/><feBlend in="SourceGraphic" in2="effect1_dropShadow_1_447" result="shape"/></filter><filter id="c" width="509.979" height="141.155" x="278.197" y="59.545" color-interpolation-filters="sRGB" filterUnits="userSpaceOnUse"><feFlood flood-opacity="0" result="BackgroundImageFix"/><feColorMatrix in="SourceAlpha" result="hardAlpha" values="0 0 0 0 0 0 0 0 0 0 0 0 0 0 0 0 0 0 127 0"/><feOffset dx="2" dy="2"/><feGaussianBlur stdDeviation="5"/><feComposite in2="hardAlpha" operator="out"/><feColorMatrix values="0 0 0 0 0 0 0 0 0 0 0 0 0 0 0 0 0 0 0.28 0"/><feBlend in2="BackgroundImageFix" result="effect1_dropShadow_1_447"/><feBlend in="SourceGraphic" in2="effect1_dropShadow_1_447" result="shape"/></filter><clipPath id="a"><path fill="#fff" d="M8 8h240v240H8z"/></clipPath></defs></svg>