<svg xmlns="http://www.w3.org/2000/svg" width="256" height="256" fill="none" viewBox="0 0 256 256"><circle cx="127.5" cy="128.5" r="95.5" fill="#000" fill-opacity=".1"/><g clip-path="url(#a)" filter="url(#b)"><path fill="#fff" d="M128 8a3.44 3.44 0 0 1 2.943 1.665l6.856 11.429-.776-1.295q1.624.135 3.235.317l-1.013 1.121 8.956-9.87a3.43 3.43 0 0 1 5.767 1.147l4.496 12.544-.51-1.424c1.045.3 2.085.62 3.117.951l-.936.693 10.432-7.73a3.43 3.43 0 0 1 2.066-.673c.443.002.881.09 1.29.259a3.43 3.43 0 0 1 2.076 2.665l1.747 11.724q1.426.737 2.827 1.515l10.725-5.065a3.43 3.43 0 0 1 2.746-.078 3.43 3.43 0 0 1 2.143 3.345l-.649 13.313.073-1.433q1.235.987 2.442 2.009l-1.297.326 12.841-3.209a3.432 3.432 0 0 1 3.561 1.257 3.44 3.44 0 0 1 .594 2.898l-3.181 12.727.298-1.182a110 110 0 0 1 2.009 2.442l-1.432.072 13.312-.648a3.43 3.43 0 0 1 3.017 1.52 3.44 3.44 0 0 1 .251 3.368l-5.067 10.724a109 109 0 0 1 1.515 2.827L236.198 80a3.43 3.43 0 0 1 2.664 2.078 3.426 3.426 0 0 1-.413 3.353l-7.932 10.707.896-1.21c.331 1.032.651 2.071.951 3.116l-1.424-.51 12.545 4.496a3.433 3.433 0 0 1 2.099 4.303 3.4 3.4 0 0 1-.952 1.465l-9.792 8.884 1.042-.942q.182 1.612.316 3.237l10.135 6.08a3.426 3.426 0 0 1 0 5.884l-10.135 6.08-.146 1.622q-.079.808-.17 1.615l-1.121-1.013 9.871 8.955a3.43 3.43 0 0 1 .293 4.779 3.44 3.44 0 0 1-1.44.988l-12.414 4.449 1.293-.462c-.3 1.045-.62 2.085-.951 3.116l7.036 9.495a3.43 3.43 0 0 1-.644 4.745 3.44 3.44 0 0 1-1.607.688l-11.723 1.748q-.738 1.426-1.516 2.827l5.067 10.725a3.434 3.434 0 0 1-1.56 4.526 3.44 3.44 0 0 1-1.708.362l-13.312-.648 1.432.072q-.987 1.237-2.009 2.443l-.348-1.389 3.231 12.933a3.43 3.43 0 0 1-2.409 4.132 3.4 3.4 0 0 1-1.746.023l-12.933-3.231 1.389.347q-1.207 1.022-2.442 2.01l-.073-1.433.649 13.312a3.432 3.432 0 0 1-4.889 3.268l-10.725-5.066q-1.4.778-2.827 1.515l-1.747 11.724a3.44 3.44 0 0 1-.688 1.607 3.43 3.43 0 0 1-4.744.644l-9.496-7.036c-1.032.331-2.072.651-3.117.951l.51-1.424-4.496 12.544a3.426 3.426 0 0 1-2.56 2.206 3.42 3.42 0 0 1-3.207-1.058l-8.956-9.871 1.013 1.121q-1.61.182-3.235.316l-6.08 10.135a3.432 3.432 0 0 1-5.885 0l-6.08-10.135a108 108 0 0 1-3.237-.316l1.013-1.121-8.955 9.871a3.427 3.427 0 0 1-4.778.293 3.43 3.43 0 0 1-.99-1.441l-4.495-12.544.51 1.424c-1.046-.3-2.085-.62-3.116-.951l1.209-.896-10.705 7.932A3.43 3.43 0 0 1 80 236.198l-1.748-11.724q-1.426-.737-2.827-1.515l-10.724 5.066a3.428 3.428 0 0 1-4.888-3.268l.647-13.312-.072 1.433a110 110 0 0 1-2.442-2.01l1.388-.347-12.931 3.231a3.43 3.43 0 0 1-4.157-4.155l3.233-12.933-.349 1.388a109 109 0 0 1-2.009-2.442l1.433-.072-13.313.648a3.44 3.44 0 0 1-3.017-1.519 3.43 3.43 0 0 1-.25-3.369l5.065-10.725a108 108 0 0 1-1.515-2.827L19.8 175.998a3.43 3.43 0 0 1-2.662-2.079 3.43 3.43 0 0 1 .412-3.354l7.036-9.496c-.33-1.031-.65-2.07-.951-3.115l1.292.462-12.412-4.449a3.43 3.43 0 0 1-2.207-2.559 3.43 3.43 0 0 1 1.06-3.208l9.87-8.955-1.12 1.013a108 108 0 0 1-.318-3.237l1.295.777-11.429-6.857A3.43 3.43 0 0 1 8 127.999a3.43 3.43 0 0 1 1.667-2.942l10.134-6.08q.135-1.625.317-3.237l1.042.942-9.792-8.884a3.43 3.43 0 0 1-1.06-3.208 3.43 3.43 0 0 1 2.208-2.56l12.544-4.496-1.424.51c.3-1.045.62-2.084.951-3.115l.53.715-7.566-10.212A3.43 3.43 0 0 1 19.801 80l11.724-1.749q.737-1.426 1.515-2.827L27.975 64.7a3.43 3.43 0 0 1 1.56-4.526 3.4 3.4 0 0 1 1.707-.361l13.313.647-1.433-.072q.987-1.236 2.01-2.443l.296 1.183-3.18-12.727a3.43 3.43 0 0 1 4.156-4.155l12.84 3.21-1.297-.327q1.206-1.021 2.442-2.009l.062 1.215-.637-13.095a3.43 3.43 0 0 1 2.141-3.345 3.43 3.43 0 0 1 2.747.078l10.724 5.065q1.401-.778 2.827-1.515L80.001 19.8a3.43 3.43 0 0 1 2.076-2.665 3.4 3.4 0 0 1 1.29-.259 3.43 3.43 0 0 1 2.067.674l10.705 7.932-1.21-.896q1.548-.498 3.116-.951l-.278.777 4.264-11.897a3.43 3.43 0 0 1 2.997-2.264 3.43 3.43 0 0 1 2.771 1.116l8.955 9.871-1.013-1.12q1.612-.184 3.237-.318l-.777 1.295 6.857-11.429A3.42 3.42 0 0 1 128 8M78.715 219.328l1.772 1.286-1.772-1.288zm11.84-1.016q.01-.013.016-.027l.013-.027zM35.2 119.49l5.516-2.808a89.5 89.5 0 0 0-.715 11.317c0 23.454 9.102 44.719 23.978 60.468l-6.424 1.018 22.351-3.541q.445-.068.894-.079a6.86 6.86 0 0 1 4.564 1.582 6.86 6.86 0 0 1 2.387 4.199l2.522 15.923c11.424 5.408 24.213 8.43 37.727 8.43 13.515 0 26.302-3.023 37.727-8.43l2.522-15.923a6.858 6.858 0 0 1 6.95-5.781q.45.011.894.079l22.353 3.541-6.425-1.018a88 88 0 0 0 10.662-13.805 30.5 30.5 0 0 0-3.997-.375c-9.555-.255-19.02-3.867-25.615-12.68l-.012.479c-4.249 5.644-8.798 5.522-10.618 5.474s-7.659-3.083-9.857-6.021-2.056-8.212-2.056-8.212l-9.011-3.598-11.196-7.017-1.806-.528c-3.691 1.82-8.203.26-12.208-3.205-.507 1.905-2.91 6.639-5.704 8.963-2.794 2.325-8.343 5.534-12.438 5.425s-13.067-5.147-15.618-11.932c-2.545-6.772.36-13.876.372-13.905l-4.524-1.081-1.756-2.445c-.033.027-5.605 4.642-11.451 2.573-5.864-2.076-10.728-7.484-11.965-12.315a18 18 0 0 1-.196-3.856zm28.22 88.728 7.12 5.169-8.611-6.255zm10.661-13.108a6.9 6.9 0 0 0-3.012.787 6.86 6.86 0 0 0-2.353 2.04 6.856 6.856 0 1 0 12.318 2.958 6.86 6.86 0 0 0-6.953-5.785m107.838 0a6.859 6.859 0 1 0 1.423 13.524 6.86 6.86 0 0 0 5.169-5.597 6.85 6.85 0 0 0-1.227-5.1 6.86 6.86 0 0 0-5.365-2.827m28.33-35.673c-6.58-14.828-25.901-27.126-37.446-21.828.442.492.897.505 1.339.996 2.678 1.991 4.019 2.987 4.358 7.314.365 3.368-.673 8.138-3.063 12.393 10.138 7.666 23.857 4.692 32.216 7.234a87 87 0 0 0 2.596-6.109m-46.732 1.915.442.491c2.237 1.014 4.525.132 4.55.122l-1.666-5.802-.455-.013zm6.12-7.514-.468.468 1.198 6.269s1.404-1.402 2.821-3.283c1.406-1.868 1.914-3.76 1.922-3.787zm-4.473-2.998c-2.385 4.698-2.043 8.051-2.038 8.101l2.416-5.212.026-.959c.454.012.026-.959-.404-1.93m5.031-.825-.013.479 5.005.134c.999-3.332-1.212-5.79-1.212-5.79zm1.518-5.717c-1.81-.048-5.086 4.137-5.12 4.181l.871 1.462.469-.466 3.767-4.698zm-25.089 1.728 4.512 1.56c1.006-3.787 4.72-7.974 4.768-8.028l-2.705-1.033zm-50.504-1.35c3.099 2.952 8.121 1.665 8.152 1.657l-2.537-7.265-.911-.024zm9.305-7.428-.467.467 2.07 7.732c4.627-3.226 5.684-8.457 5.69-8.484zm27.424-84.4a6.86 6.86 0 0 1-9.697 0L111.785 41.48c-26.42 4.891-48.643 21.524-61.078 44.315l3.898 7.65c.803-2.242 1.654-3.607 3.934-6.391 2.172.947 3.84 1.69 5.1 2.196a6.5 6.5 0 0 1-.675 1.281q2.029.774 5.421 1.584l.974-2.373s.91.025 1.352.517c.064-2.398 1.43-2.362 1.43-2.362 0-.014.02-.479.467-.467 2.262.54 8.542 4.066 11.234 5.578 2.644 1.484 2.678 1.974 2.679 1.991.022 0 6.373.17 8.203-.26 1.82.048 5.043-1.305 9.631-2.622s5.512-1.771 6.422-1.747c.911.025 9.087.723 16.34 1.876 7.255 1.154 14.003 4.213 15.342 5.208l2.262.54.493-1.426-3.601-1.536c.008-.035.519-2.388.532-2.864.013-.48.48-.947.935-.935.455.013 4.525 1.08 5.877 1.596s5.813 3.995 6.268 4.007c.449.012.441.48.441.491-.025.953-.973 2.827-.986 2.853.016.006 1.354.519 1.794 1.007.442.492 1.782 1.488 3.108 2.962 1.326.986.855 2.394.846 2.421l3.095 3.442-.038 1.438 7.517 8.358-.013.48-3.704 2.3c.055-.004 5.038-.335 8.607 1.669 3.588 2.015 4.018 2.986 3.992 3.945-.916.452-2.281.891-2.301.898-2.755.886-9.709 5.499-9.709 5.499l-.012.479 3.615 1.056c4.197-3.726 11.515-4.97 16.949-3.865 13.621 2.769 21.552 7.997 24.749 11.376.353.374.753.847 1.183 1.405a89 89 0 0 0 1.641-17.052 89 89 0 0 0-.715-11.317l5.515 2.808-19.827-10.102a6.86 6.86 0 0 1-3.726-6.648 6.9 6.9 0 0 1 .726-2.576l7.32-14.368c-12.434-22.791-34.657-39.424-61.078-44.315zm4.791 88.62 5.864 2.076 6.094-6.555-3.147-1.523-.883-.984zm-41.174-9.738c-3.351 6.148-1.191 10.525-1.191 10.525l4.261-6.124.026-.959zm-25.812-22.28c.442.492 2.614 4.389 3.044 5.36l-1.404 1.401c-.004.009-.48.95-.493 1.427-.013.474-.472.937-.48.946l-1.846.91-.455-.012-6.229-5.444-.102 3.835.454.013c.43.971 1.289 2.913 3.538 3.932 1.794 1.008 4.068 1.069 4.991.614.897.503 1.353.516 1.795 1.007 1.774.996 2.251.551 2.262.54l2.756-.885.455.012.467-.467.962-1.894c.059.008 4.549.601 6.357.65 1.897-2.829 7.927-6.986 12.035-7.356 4.095.11 10.894 1.251 16.2 7.15 4.837 5.871 3.289 13.479 3.28 13.523l9.921 3.624-4.46-3.479c-3.383-9.686-11.798-18.547-11.798-18.547s-2.262-.54-3.627-.577a6.4 6.4 0 0 1-2.237-1.499c-.007-.007-.449-.503-1.313-1.954l-.859-1.942s-.884-.983-2.223-1.979c-1.34-.995-6.332-1.608-9.05-2.161-2.69-.547-2.73-.082-2.73-.073 7.682 2.124 9.945 2.665 10.388 3.156 0 0 .43.971.872 1.463-6.33-1.608-12.27-.808-13.65-.365.872 1.463.82 3.381-.128 4.795-.93.928-3.666 2.281-3.703 2.3l-.91-.025-2.262-.54c-1.872-.447-1.493-3.462-1.307-4.489a5.6 5.6 0 0 0 .018 1.576c.39 2.409.847 2.422 2.212 2.458-2.25-1.02-1.693-4.843.191-7.191 1.408-1.871 2.728-.424 2.743-.408-.014-.021-1.32-1.948-2.704-1.031-1.031.684-2.091 2.424-2.41 4.26l-2.736.88c-.857-1.938-4.792-7.297-4.813-7.325zm76.771 23.643.885.983 9.92 3.624c2.318-1.851 5.503-2.249 5.524-2.252-1.794-1.007-9.439-4.57-11.688-5.59 0 0-.324-.123-.653-.305zm-41.871-.64.442.492 7.267.674c.14-5.243-3.843-7.751-3.89-7.78zm1.57-7.635c-4.969-.61-8.727 4.042-8.76 4.084l3.563 2.975.923-.455zm43.722 4.316c.131.153.35.298.567.419l.21-.186c-.209-.005-.511-.117-.777-.233m12.876-9.52c-.008.017-.963 1.896-1.429 2.362-.468.467-3.666.861-5.499 1.292-1.845.91-5.068 2.263-6.004 3.198-.467.467-.506 1.905-.519 2.385.003.001.264.147.575.283-.076-.089-.123-.181-.12-.271l.039-1.438c.041-.032 6.074-4.636 15.142-4.394l1.442-2.84zm-49.556-2.763c2.668 1.983 6.602 7.331 6.633 7.374l1.353.515 2.742-.406c-4.826-6.846-10.728-7.483-10.728-7.483m38.688.553c-17.127-4.282-31.697-2.779-31.798-2.768 2.64 3.429 5.241 8.297 5.241 8.297 4.678-4.673 14.285-6.336 26.557-5.529m-84.994-5.63-.103 3.835.923-.455.102-3.835zm-1 3.332.455.012.09-3.356zm78.098-8.948 2.589 5.347 9.011 3.599c-3.412-8.223-9.264-9.835-9.299-9.844zm-78.995 8.445.455.011.089-3.356zm-.897-.504.455.012.09-3.356zm-.43-.972.455.013.077-2.877-.442-.492zm-.8-21.132c-2.347 2.81-3.36 6.608-3.365 6.627-.001.013-.635 6.701-.66 7.659-.476.938.845 1.453.87 1.463l-.595 5.262 2.73.073.544-3.345-.05 1.918.455.013.077-2.877-.455-.012.05-1.918 4.032 2.507.429.971.884.983.91.025.468-.468.013-.48c-2.702-.072-2.692-1.482-2.691-1.51 0 0 .544-3.344 1.025-4.291s2.288-.419 2.288-.419l-.442-.491-.91-.025c-.898-.504-3.577-2.495-4.474-2.999l.013-.478.468-.468.051-1.918.455.012c.013-.48.468-.468.48-.947.909.024 7.736-1.224 7.774-1.231l-.268-.069c1.073-.1 3.011-.337 3.011-.337l-8.58-2.63-.494 1.427.013-.479q-2.711-.792-4.057-1.548m-.097 20.629.456.012.076-2.877zm60.507-15.176c-.909-.024-1.378.444-1.378.444-.046.03-2.8 1.855-5.094 3.221-2.313 1.378-2.781 1.846-3.262 2.792-.464.466.833 2.401.847 2.421l3.51 4.893c.455.012 1.791 1.004 1.795 1.008 0 0 7.293-.286 11.856-.644l11.83.316c.454.012.051-1.917-.795-4.338-.856-1.936-2.088-6.743-2.096-6.774-.429-.971-1.339-.996-6.773-2.1-4.992-.614-9.53-1.214-10.44-1.239m-65.808 7.949a6.9 6.9 0 0 1-1.308 2.335 6.9 6.9 0 0 1-1.934 1.564l-.025.22 3.185.085.012-.48-.454-.012.013-.479-.455-.012.48-.947.519-2.385zm45.974 1.596s5.006.134 11.792 1.755c-4.46-3.478-11.689-5.59-11.689-5.59zm125.234.989-2.875-8.848-.657-2.028h-.002zM41.407 92.897a6.859 6.859 0 0 0-2.477 13.371 6.856 6.856 0 0 0 4.237-13.041 6.9 6.9 0 0 0-1.76-.33m173.186 0a6.9 6.9 0 0 0-1.76.33 6.856 6.856 0 0 0 4.238 13.041 6.86 6.86 0 0 0-2.478-13.371m-114.135 8.713c.435.484.43.955.43.971l.455.013c.013-.48.468-.468.455.011.014.008.893.516.403 1.931.442.492-.48.946-.935.934l1.352.516c.015.001.91.017.936-.934l.052-1.918-1.34-.996zm-.843.004c.076.285.078.727-.104 1.41-.051 1.918-1.417 1.881-1.417 1.881s.455.013 1.353.517c.909.024 1.39-.923 1.415-1.882.034-1.245-.975-1.8-1.247-1.926m-2.354.39-.545 3.345.455.011.923-.455c-.43-.971-.416-1.45-.39-2.409.005-.209.186-.505.426-.771zm-38.354-13.02c-2.027 2.428-3.056 5.598-3.302 6.424l2.423 4.756c.302.594.515 1.228.634 1.882l.47-4.419-2.237-1.5c1.007-3.792 3.355-7.074 3.378-7.105zm40.2 12.111c-.257-.007-.666.286-.977.63l.509-.163.91.024.066.028c-.134-.506-.503-.519-.508-.519m8.459-9.85c-.456-.013-12.4 3.986-12.4 3.986.006.005 3.133 2.003 3.588 2.016s6.761 2.58 9.465 3.611c2.249 1.02 3.641.098 4.096.11.457.01 8.278-4.553 8.317-4.576-6.748-3.06-13.066-5.148-13.066-5.148m120.347 6.648-.069.047.094-.062zM71.647 89.325c-.01.027-.494 1.445-.545 3.344 7.194 1.144 8.559 2.604 8.58 2.628.014-.002 2.746-.406 4.108-.37-2.222-1.976-12.128-5.596-12.143-5.602M36.05 79.151l.05-.068zm4.076-2.723-.088.022q.112-.026.226-.05-.069.013-.138.028m.661-.114.069-.01h.005q-.037.003-.074.01M128 29.714a6.855 6.855 0 0 0-6.857 6.857A6.857 6.857 0 1 0 128 29.714m-22.79 3.234.011.067-.018-.125zm45.568.067.011-.067.007-.058zm-.855-4.463q.232.396.41.824a7 7 0 0 1-.342-.711q-.033-.056-.068-.113m-43.914.113a7 7 0 0 0-.342.711q.178-.428.41-.824-.035.056-.068.113m.496-.767-.059.083.1-.133zm2.021-1.81-.065.04.121-.07zm39.011.04-.062-.04-.058-.03q.06.034.12.07m-1.259-.594-.044-.016-.005-.001z"/></g><defs><clipPath id="a"><path fill="#fff" d="M8 8h240v240H8z"/></clipPath><filter id="b" width="252" height="252" x="2" y="2" color-interpolation-filters="sRGB" filterUnits="userSpaceOnUse"><feFlood flood-opacity="0" result="BackgroundImageFix"/><feColorMatrix in="SourceAlpha" result="hardAlpha" values="0 0 0 0 0 0 0 0 0 0 0 0 0 0 0 0 0 0 127 0"/><feOffset/><feGaussianBlur stdDeviation="3"/><feComposite in2="hardAlpha" operator="out"/><feColorMatrix values="0 0 0 0 0 0 0 0 0 0 0 0 0 0 0 0 0 0 0.25 0"/><feBlend in2="BackgroundImageFix" result="effect1_dropShadow_1_45"/><feBlend in="SourceGraphic" in2="effect1_dropShadow_1_45" result="shape"/></filter></defs></svg>